<svg preserveAspectRatio="none" width="100%" height="100%" overflow="visible" style="display: block;" viewBox="0 0 1130 1096" fill="none" xmlns="http://www.w3.org/2000/svg">
<path id="Union" opacity="0.1" d="M948.519 8.68212L1121.15 206.514L1123.71 209.447L1120.87 212.109L621.742 679.843C811.98 692.329 985.116 766.956 1120.74 883.465L1123.82 886.112L1121.15 889.174L948.63 1087.1L945.999 1090.12L942.961 1087.51C841.582 1000.45 709.413 947.787 564.84 947.787C420.246 947.787 288.06 1000.47 186.675 1087.55L183.639 1090.15L181.008 1087.14L8.37985 889.308L5.82028 886.375L8.6611 883.712L507.784 415.977C317.547 403.492 144.411 328.866 8.79098 212.357L5.70993 209.709L8.37887 206.647L180.896 8.72118L183.527 5.70263L186.565 8.31103C287.945 95.3697 420.114 148.035 564.687 148.035C709.281 148.035 841.467 95.3553 942.852 8.27489L945.888 5.66747L948.519 8.68212Z" fill="var(--fill-0, #FFDABF)" stroke="var(--stroke-0, white)" stroke-width="8.06678"/>
</svg>
