<svg preserveAspectRatio="none" width="100%" height="100%" overflow="visible" style="display: block;" viewBox="0 0 260 69" fill="none" xmlns="http://www.w3.org/2000/svg">
<g id="Vector">
<path d="M241.51 55.2142C237.433 55.2142 233.812 54.3852 230.646 52.7271C227.529 51.0216 225.107 48.6766 223.38 45.6921C221.653 42.6601 220.79 39.2019 220.79 35.3172C220.79 31.4799 221.653 28.0453 223.38 25.0134C225.155 21.9815 227.529 19.6128 230.503 17.9073C233.524 16.1545 236.882 15.2781 240.575 15.2781C244.172 15.2781 247.434 16.0834 250.359 17.6941C253.285 19.2575 255.563 21.4367 257.194 24.2317C258.873 27.0268 259.712 30.1298 259.712 33.5407C259.712 34.9619 259.592 36.4305 259.352 37.9464H226.546V29.9876H247.985C247.937 28.898 247.577 27.9506 246.906 27.1452C246.235 26.2925 245.323 25.6292 244.172 25.1555C243.069 24.6344 241.822 24.3738 240.431 24.3738C238.56 24.3738 236.93 24.8002 235.539 25.6529C234.196 26.4583 233.164 27.6426 232.445 29.206C231.774 30.7693 231.438 32.6169 231.438 34.7487C231.438 37.0227 231.822 38.9887 232.589 40.6468C233.356 42.2575 234.46 43.4892 235.898 44.3419C237.337 45.1947 239.064 45.621 241.078 45.621C243.093 45.621 244.748 45.1947 246.043 44.3419C247.338 43.4892 248.129 42.3285 248.417 40.8599L260 41.8548C259.041 46.0237 256.978 49.2925 253.813 51.6612C250.647 54.0299 246.546 55.2142 241.51 55.2142Z" fill="var(--fill-0, #FF6B02)"/>
<path d="M197.428 69C194.167 69 191.145 68.55 188.363 67.6499C185.629 66.7497 183.279 65.4707 181.312 63.8126C179.394 62.1545 177.979 60.2358 177.068 58.0566L187.715 54.0772C188.195 55.4511 189.226 56.6354 190.809 57.6303C192.392 58.6725 194.502 59.1936 197.14 59.1936C199.107 59.1936 200.809 58.862 202.248 58.1988C203.735 57.5829 204.886 56.5881 205.702 55.2142C206.517 53.8404 206.925 52.1112 206.925 50.0268V27.7137L208.22 26.7899V16.0597H219.227C218.796 17.1967 218.484 18.689 218.292 20.5366C218.148 22.3368 218.076 24.516 218.076 27.0742V49.6004C218.076 53.7219 217.189 57.2276 215.414 60.1174C213.688 63.0546 211.265 65.2575 208.148 66.7261C205.03 68.242 201.457 69 197.428 69ZM196.061 52.4428C192.608 52.4428 189.49 51.6375 186.708 50.0268C183.926 48.3687 181.744 46.1184 180.161 43.276C178.578 40.4336 177.787 37.2832 177.787 33.8249C177.787 30.3666 178.555 27.2163 180.089 24.3738C181.672 21.5314 183.854 19.3048 186.636 17.6941C189.418 16.0834 192.56 15.2781 196.061 15.2781C199.419 15.2781 202.32 16.0124 204.766 17.4809C207.213 18.9022 209.083 21.0103 210.378 23.8054C211.721 26.6004 212.393 29.9403 212.393 33.8249C212.393 37.757 211.721 41.1205 210.378 43.9156C209.083 46.6632 207.213 48.7714 204.766 50.24C202.32 51.7086 199.419 52.4428 196.061 52.4428ZM197.644 42.7075C199.419 42.7075 201.001 42.3285 202.392 41.5706C203.783 40.8126 204.886 39.7703 205.702 38.4439C206.517 37.07 206.925 35.5304 206.925 33.8249C206.925 32.1195 206.517 30.6035 205.702 29.277C204.886 27.9032 203.783 26.8373 202.392 26.0793C201.001 25.2739 199.419 24.8713 197.644 24.8713C195.965 24.8713 194.43 25.2739 193.039 26.0793C191.648 26.8847 190.545 27.9743 189.73 29.3481C188.915 30.6746 188.507 32.1668 188.507 33.8249C188.507 35.4356 188.915 36.9279 189.73 38.3018C190.545 39.6756 191.648 40.7652 193.039 41.5706C194.43 42.3285 195.965 42.7075 197.644 42.7075Z" fill="var(--fill-0, #FF6B02)"/>
<path d="M165.166 43.7024L163.943 42.7075V30.5561C163.943 29.5139 163.655 28.5191 163.079 27.5716C162.504 26.6241 161.688 25.8661 160.633 25.2976C159.578 24.7291 158.355 24.4449 156.964 24.4449C155.093 24.4449 153.559 24.9423 152.36 25.9372C151.208 26.8847 150.633 28.1874 150.633 29.8455L139.913 28.6375C140.201 26.0319 141.088 23.7106 142.575 21.6735C144.11 19.6365 146.1 18.0731 148.547 16.9835C151.041 15.8466 153.846 15.2781 156.964 15.2781C160.465 15.2781 163.607 15.965 166.389 17.3388C169.219 18.7127 171.425 20.6313 173.008 23.0947C174.591 25.5582 175.382 28.3532 175.382 31.4799V43.276C175.382 44.1287 175.382 44.9578 175.382 45.7631C175.478 47.7528 175.622 49.4583 175.814 50.8795C176.006 52.3007 176.269 53.4851 176.605 54.4325H165.166V43.7024ZM154.23 55.2142C150.201 55.2142 146.988 54.172 144.59 52.0875C142.239 50.0031 141.064 47.2317 141.064 43.7734C141.064 40.8836 141.808 38.586 143.295 36.8805C144.829 35.1277 146.748 33.8486 149.05 33.0433C151.4 32.1905 154.23 31.4799 157.54 30.9114L158.691 30.6983C159.506 30.5561 160.393 30.3903 161.353 30.2008C162.36 29.964 163.367 29.7034 164.374 29.4192V36.5252C163.847 37.2832 163.151 37.828 162.288 38.1596C161.425 38.4439 160.13 38.7044 158.403 38.9413L157.54 39.0834C156.389 39.3203 155.405 39.6045 154.59 39.9361C153.822 40.2204 153.223 40.6231 152.791 41.1442C152.408 41.6179 152.216 42.2338 152.216 42.9918C152.216 44.034 152.575 44.863 153.295 45.4789C154.014 46.0474 155.046 46.3316 156.389 46.3316C157.827 46.3316 159.098 45.9289 160.202 45.1236C161.353 44.3182 162.264 43.2049 162.936 41.7837C163.607 40.3151 163.943 38.6334 163.943 36.7384L168.763 38.586C168.667 42.3285 167.996 45.4552 166.749 47.966C165.55 50.4295 163.895 52.2534 161.784 53.4377C159.674 54.622 157.156 55.2142 154.23 55.2142Z" fill="var(--fill-0, #FF6B02)"/>
<path d="M117.097 69C113.835 69 110.813 68.55 108.032 67.6499C105.298 66.7497 102.947 65.4707 100.981 63.8126C99.0624 62.1545 97.6475 60.2358 96.7362 58.0566L107.384 54.0772C107.864 55.4511 108.895 56.6354 110.478 57.6303C112.06 58.6725 114.171 59.1936 116.809 59.1936C118.775 59.1936 120.478 58.862 121.917 58.1988C123.404 57.5829 124.555 56.5881 125.37 55.2142C126.186 53.8404 126.593 52.1112 126.593 50.0268V27.7137L127.888 26.7899V16.0597H138.896C138.464 17.1967 138.152 18.689 137.961 20.5366C137.817 22.3368 137.745 24.516 137.745 27.0742V49.6004C137.745 53.7219 136.857 57.2276 135.083 60.1174C133.356 63.0546 130.934 65.2575 127.816 66.7261C124.699 68.242 121.126 69 117.097 69ZM115.73 52.4428C112.276 52.4428 109.159 51.6375 106.377 50.0268C103.595 48.3687 101.413 46.1184 99.8298 43.276C98.247 40.4336 97.4556 37.2832 97.4556 33.8249C97.4556 30.3666 98.223 27.2163 99.7578 24.3738C101.341 21.5314 103.523 19.3048 106.305 17.6941C109.087 16.0834 112.228 15.2781 115.73 15.2781C119.087 15.2781 121.989 16.0124 124.435 17.4809C126.881 18.9022 128.752 21.0103 130.047 23.8054C131.39 26.6004 132.061 29.9403 132.061 33.8249C132.061 37.757 131.39 41.1205 130.047 43.9156C128.752 46.6632 126.881 48.7714 124.435 50.24C121.989 51.7086 119.087 52.4428 115.73 52.4428ZM117.312 42.7075C119.087 42.7075 120.67 42.3285 122.061 41.5706C123.452 40.8126 124.555 39.7703 125.37 38.4439C126.186 37.07 126.593 35.5304 126.593 33.8249C126.593 32.1195 126.186 30.6035 125.37 29.277C124.555 27.9032 123.452 26.8373 122.061 26.0793C120.67 25.2739 119.087 24.8713 117.312 24.8713C115.634 24.8713 114.099 25.2739 112.708 26.0793C111.317 26.8847 110.214 27.9743 109.398 29.3481C108.583 30.6746 108.175 32.1668 108.175 33.8249C108.175 35.4356 108.583 36.9279 109.398 38.3018C110.214 39.6756 111.317 40.7652 112.708 41.5706C114.099 42.3285 115.634 42.7075 117.312 42.7075Z" fill="var(--fill-0, #FF6B02)"/>
<path d="M83.4632 34.1092C83.4632 32.4985 83.1514 31.0772 82.5279 29.8455C81.9044 28.5664 81.0171 27.5716 79.8659 26.861C78.7148 26.1504 77.3958 25.7951 75.909 25.7951C73.5588 25.7951 71.6882 26.6004 70.2973 28.2111C68.9063 29.7745 68.1869 31.9773 68.1389 34.8198L63.3905 32.4037C63.8702 28.8507 64.8294 25.7951 66.2683 23.2369C67.7552 20.6313 69.6258 18.6653 71.8801 17.3388C74.1343 15.965 76.7004 15.2781 79.5782 15.2781C82.6478 15.2781 85.3098 16.0124 87.5641 17.4809C89.8183 18.9022 91.545 20.9866 92.7441 23.7343C93.9911 26.4346 94.6147 29.6323 94.6147 33.3275V54.4325H83.4632V34.1092ZM56.9874 16.0597H66.9158V24.8713L68.1389 26.6478V54.4325H56.9874V16.0597Z" fill="var(--fill-0, #FF6B02)"/>
<path d="M41.2467 16.0597H52.3981V54.4326H41.2467V16.0597ZM41.1028 5.50721C41.1028 2.46566 43.5684 0 46.61 0H47.0348C50.0764 0 52.542 2.46566 52.542 5.50721C52.542 8.54876 50.0764 11.0144 47.0348 11.0144H46.61C43.5685 11.0144 41.1028 8.54876 41.1028 5.50721Z" fill="var(--fill-0, #FF6B02)"/>
<path d="M39.7423 23.1596L33.543 16.0916C29.8768 19.2244 25.0967 21.1196 19.8684 21.1196C14.6408 21.1196 9.86129 19.2249 6.1953 16.0929L2.32111e-05 23.1643C4.9267 27.3751 11.2384 30.0473 18.1694 30.4247L0 47.3645L6.19924 54.4325C9.86543 51.2997 14.6456 49.4045 19.8739 49.4045C25.1014 49.4045 29.881 51.2991 33.547 54.4312L39.7422 47.3598C34.8156 43.149 28.5038 40.4768 21.5728 40.0994L39.7423 23.1596Z" fill="var(--fill-0, #FF6B02)"/>
</g>
</svg>
